<?xml version="1.0" encoding="UTF-8" standalone="no"?>
<!-- Created with Inkscape (http://www.inkscape.org/) -->

<svg
   xmlns:dc="http://purl.org/dc/elements/1.1/"
   xmlns:cc="http://creativecommons.org/ns#"
   xmlns:rdf="http://www.w3.org/1999/02/22-rdf-syntax-ns#"
   xmlns:svg="http://www.w3.org/2000/svg"
   xmlns="http://www.w3.org/2000/svg"
   xmlns:sodipodi="http://sodipodi.sourceforge.net/DTD/sodipodi-0.dtd"
   xmlns:inkscape="http://www.inkscape.org/namespaces/inkscape"
   width="166.46568mm"
   height="166.46121mm"
   viewBox="0 0 589.83903 589.82319"
   id="svg2"
   version="1.1"
   inkscape:version="0.91 r13725"
   sodipodi:docname="logo-icon.svg">
  <defs
     id="defs4" />
  <sodipodi:namedview
     id="base"
     pagecolor="#ffffff"
     bordercolor="#666666"
     borderopacity="1.0"
     inkscape:pageopacity="0.0"
     inkscape:pageshadow="2"
     inkscape:zoom="0.35"
     inkscape:cx="292.86592"
     inkscape:cy="311.98004"
     inkscape:document-units="px"
     inkscape:current-layer="layer1"
     showgrid="false"
     fit-margin-top="0"
     fit-margin-left="0"
     fit-margin-right="0"
     fit-margin-bottom="0"
     inkscape:window-width="1305"
     inkscape:window-height="744"
     inkscape:window-x="61"
     inkscape:window-y="24"
     inkscape:window-maximized="1" />
  <metadata
     id="metadata7">
    <rdf:RDF>
      <cc:Work
         rdf:about="">
        <dc:format>image/svg+xml</dc:format>
        <dc:type
           rdf:resource="http://purl.org/dc/dcmitype/StillImage" />
        <dc:title></dc:title>
      </cc:Work>
    </rdf:RDF>
  </metadata>
  <g
     inkscape:label="Layer 1"
     inkscape:groupmode="layer"
     id="layer1"
     transform="translate(-82.134082,-254.51905)">
    <g
       id="g3428"
       transform="translate(2.85714,5.7142886)">
      <path
         style="fill:#f06059"
         d="m 363.78574,837.69054 c -7.35553,-1.65373 -12.95124,-4.14578 -19,-8.46163 -3.3,-2.35459 -62.50301,-60.90391 -131.56225,-130.10961 C 78.548965,564.15915 84.412733,570.46441 80.73838,556.65934 77.487371,544.44483 79.797985,528.14274 86.301097,517.41265 90.853154,509.90179 341.74273,259.19098 348.6629,255.23778 c 10.53191,-6.01642 26.74673,-8.12035 38.49142,-4.99438 13.80507,3.67435 7.49981,-2.18942 142.45996,132.48511 69.2057,69.05924 127.77632,128.26225 130.15695,131.56225 8.18019,11.3393 11.32108,27.20132 8.09815,40.89697 -3.62051,15.38517 3.5709,7.60087 -135.50745,146.67922 -138.55873,138.55873 -131.363,131.89394 -146.16926,135.38403 -7.03037,1.65717 -16.19183,1.8369 -22.40693,0.43956 z"
         id="path3442"
         inkscape:connector-curvature="0" />
      <path
         style="fill:#ee4a2f"
         d="m 368.78574,837.78512 c -2.75,-0.37408 -4.55,-0.77505 -4,-0.89103 0.55,-0.11599 -1.475,-1.01107 -4.5,-1.98907 -3.025,-0.97801 -7.525,-2.79624 -10,-4.04052 -5.56741,-2.79895 -256.395625,-252.80118 -261.543592,-260.68232 -1.835311,-2.80972 -4.192666,-7.64336 -5.238568,-10.74143 -1.045902,-3.09807 -2.143362,-5.39113 -2.438801,-5.09569 -0.295439,0.29544 -0.848963,-1.95842 -1.230054,-5.00857 -0.73824,-5.90867 0.203463,-16.81676 1.388571,-16.08432 0.390464,0.24132 1.278531,-1.77979 1.973482,-4.49135 0.694952,-2.71155 2.974968,-7.52659 5.066704,-10.70008 5.126092,-7.77708 255.834538,-258.07719 262.022258,-261.59549 2.475,-1.40727 6.61079,-3.12092 9.19065,-3.80811 2.57985,-0.68719 4.49744,-1.56204 4.26132,-1.9441 -0.72477,-1.1727 10.22262,-2.10685 16.09376,-1.3733 3.05015,0.38109 5.30401,0.93462 5.00857,1.23006 -0.29544,0.29543 1.99762,1.39289 5.09569,2.4388 3.09807,1.0459 7.93171,3.40253 10.74143,5.23697 2.85407,1.86338 61.02218,59.31884 131.8051,130.19026 117.97858,118.12608 126.90664,127.30219 129.75006,133.35493 1.67944,3.575 3.32785,7.95856 3.66313,9.74125 0.33527,1.78269 0.96683,3.02046 1.40347,2.75061 1.08076,-0.66795 1.64005,8.81669 0.88377,14.98732 -0.33844,2.76145 -0.69033,4.57082 -0.78197,4.02082 -0.0916,-0.55 -1.1675,1.93539 -2.3908,5.52309 -1.2233,3.5877 -3.67014,8.7627 -5.43742,11.5 -1.7843,2.76366 -59.59587,61.28472 -130,131.59544 -115.04681,114.89416 -127.37572,126.90622 -133.1473,129.72543 -3.4983,1.70879 -7.88186,3.39229 -9.74125,3.74111 -1.85939,0.34883 -3.13309,1.03489 -2.83044,1.52458 0.30264,0.48969 -1.23949,0.89035 -3.42697,0.89035 -2.18747,0 -4.57653,0.15176 -5.30901,0.33725 -0.73249,0.18549 -3.58179,0.0312 -6.33179,-0.34289 z"
         id="path3440"
         inkscape:connector-curvature="0" />
      <path
         style="fill:#ed3d35"
         d="m 368.78574,837.78512 c -2.75,-0.37408 -4.325,-0.78046 -3.5,-0.90307 0.825,-0.1226 -0.92792,-0.87582 -3.89537,-1.67381 -12.3503,-3.32118 -8.92599,-0.11003 -143.80148,-134.84972 C 92.091517,574.98751 89.317229,572.13342 85.838896,564.81897 c -1.954234,-4.10948 -3.560043,-8.60948 -3.568465,-10 -0.01086,-1.79215 -0.264738,-2.1346 -0.872036,-1.17624 -1.286593,2.03033 -2.387137,-8.8069 -1.56367,-15.3977 0.381091,-3.05015 0.926949,-5.31167 1.213019,-5.0256 0.286069,0.28607 1.515622,-2.32881 2.732339,-5.81084 1.216717,-3.48203 3.59436,-8.30801 5.283649,-10.7244 1.68929,-2.41639 60.367818,-61.59974 130.396718,-131.51856 112.85008,-112.67268 127.9772,-127.42604 133.05956,-129.77186 3.15385,-1.45569 7.08404,-2.91667 8.73377,-3.24662 1.64972,-0.32994 2.7869,-0.94389 2.52705,-1.36433 -0.25985,-0.42045 1.99746,-1.07304 5.01623,-1.45021 6.54612,-0.81788 17.3624,0.28965 15.34065,1.5708 -0.95836,0.6073 -0.61591,0.86118 1.17624,0.87204 1.39052,0.008 5.89052,1.61423 10,3.56846 7.31445,3.47833 10.16854,6.25262 135.53955,131.75 134.73969,134.87549 131.52854,131.45118 134.84972,143.80148 0.79799,2.96745 1.54387,4.72037 1.65751,3.89537 0.11363,-0.825 0.49324,0.8625 0.84357,3.75 0.56242,4.63564 -0.26505,18.06241 -0.87821,14.25 -0.13269,-0.825 -0.65132,0.2467 -1.15251,2.38157 -0.50119,2.13486 -2.30558,6.85986 -4.00975,10.5 -2.91338,6.22304 -10.75374,14.27253 -131.23829,134.73884 -117.13361,117.11589 -128.69381,128.39096 -134.58991,131.27018 -3.54756,1.73238 -8.1966,3.42905 -10.33121,3.77038 -2.64228,0.42252 -3.45619,0.88998 -2.54989,1.46451 0.84777,0.53742 -0.18253,0.84946 -2.837,0.85921 -2.29252,0.008 -4.76752,0.16707 -5.5,0.35256 -0.73249,0.18549 -3.58179,0.0312 -6.33179,-0.34289 z m 101.27468,-114.4998 c 29.62921,-15.75767 55.91005,-39.64994 73.94003,-67.21988 5.64423,-8.63068 13.0457,-22.05679 15.81341,-28.68518 l 1.63284,-3.9105 -5.3096,4.4105 c -7.01112,5.82389 -96.66561,95.48573 -99.73466,99.74283 l -2.3833,3.3059 3.8833,-1.62148 c 2.13582,-0.89181 7.60691,-3.6018 12.15798,-6.02219 z m -179.11969,4.6767 c -0.91025,-1.00581 -1.65499,-2.17912 -1.65499,-2.60736 0,-0.42824 -10.8,-11.79977 -24,-25.27007 -13.2,-13.4703 -24,-24.85876 -24,-25.30767 0,-0.44892 7.7625,-8.3798 17.25,-17.62417 45.79769,-44.62407 112.75,-112.01345 112.75,-113.48604 0,-0.90871 -29.25,-30.69166 -65,-66.18433 -35.75,-35.49268 -65,-64.8929 -65,-65.33384 0,-0.44094 10.0125,-10.97879 22.25,-23.41744 20.4875,-20.82425 27.86112,-28.94034 26.29281,-28.94034 -1.04658,0 -10.1524,4.80565 -18.93377,9.9924 -47.11716,27.82999 -82.18747,75.98768 -93.94836,129.0076 -2.40928,10.86141 -3.71384,19.42694 -5.13186,33.69502 l -0.61569,6.19503 2.83347,-1.41352 c 1.55841,-0.77744 14.96546,-13.12861 29.79344,-27.44704 14.82798,-14.31844 27.43368,-25.92012 28.01268,-25.78151 0.579,0.13861 14.24941,13.63952 30.37869,30.00202 l 29.32597,29.75 -29.35252,29.75 c -16.14388,16.3625 -29.8549,29.75 -30.46892,29.75 -0.61402,0 -13.15726,-11.57647 -27.87386,-25.72549 -14.7166,-14.14902 -28.06343,-26.377 -29.65962,-27.17328 l -2.90216,-1.44779 0.58668,7.17328 c 1.6968,20.7466 6.61104,43.42634 13.00826,60.03461 18.12898,47.06584 51.46685,84.54872 95.90476,107.82894 6.05,3.16948 11.18224,5.77328 11.40499,5.78621 0.22274,0.0129 -0.33976,-0.79941 -1.25,-1.80522 z M 555.39998,452.04076 c -17.31284,-34.42094 -45.25045,-63.93307 -78.83954,-83.28279 -5.46458,-3.14799 -12.11501,-6.68768 -14.77874,-7.86597 -4.38145,-1.93813 -4.68339,-1.96583 -3.16737,-0.29065 0.92168,1.01844 1.38865,2.13884 1.03772,2.48977 -0.83387,0.83387 94.43964,95.69964 96.11095,95.69964 0.70282,0 1.83805,0.675 2.52274,1.5 2.52269,3.03966 1.90628,1.27741 -2.88576,-8.25 z"
         id="path3438"
         inkscape:connector-curvature="0" />
      <path
         style="fill:#994147"
         d="m 307.28861,740.30833 -65.49712,-65.51755 64.74712,-64.75287 c 35.61092,-35.61408 64.74713,-65.4253 64.74713,-66.24715 0,-0.82185 -29.13621,-30.63307 -64.74713,-66.24715 l -64.74712,-64.75287 65.49426,-65.49999 c 36.02185,-36.02499 66.1712,-65.49999 66.99856,-65.49999 2.04677,0 262.00143,260.08256 262.00143,262.13034 0,1.63671 -260.21095,261.13717 -262.35356,261.63722 -0.63054,0.14716 -30.62015,-29.21534 -66.64357,-65.24999 z M 201.52938,573.53451 c -16.084,-16.09094 -29.24364,-29.70635 -29.24364,-30.25647 0,-1.62527 57.37284,-58.48728 59.01271,-58.48728 0.825,0 14.76928,13.275 30.98729,29.5 l 29.48729,29.5 -29.48729,29.5 c -16.21801,16.225 -29.94301,29.5 -30.5,29.5 -0.55699,0 -14.17235,-13.16531 -30.25636,-29.25625 z"
         id="path3436"
         inkscape:connector-curvature="0" />
      <path
         style="fill:#983b48"
         d="m 354.25607,787.04076 c -10.24944,-10.3125 -39.50458,-39.80045 -65.01142,-65.52877 l -46.37609,-46.77877 65.25724,-64.72123 c 35.89148,-35.59668 65.2537,-65.39623 65.24938,-66.22123 -0.004,-0.825 -29.35148,-30.67193 -65.21592,-66.32651 l -65.20806,-64.82651 29.91671,-30.17349 c 85.08275,-85.81302 100.00202,-100.67349 101.07186,-100.67349 0.64052,0 30.1179,29.14705 65.50528,64.77123 35.38738,35.62417 94.15319,94.16388 130.59069,130.08824 37.53242,37.00386 66.25,66.07539 66.25,67.06654 0,0.99137 -28.49274,29.82608 -65.75,66.53912 -36.1625,35.63427 -95,94.22538 -130.75,130.20246 -35.75,35.97708 -65.42622,65.39477 -65.94717,65.37264 -0.52094,-0.0221 -9.33306,-8.47773 -19.5825,-18.79023 z M 202.53574,572.69412 c -16.0875,-15.478 -29.25,-28.48506 -29.25,-28.90458 0,-0.41952 13.16227,-13.43882 29.24948,-28.93178 l 29.24948,-28.16903 1.81678,2.24363 c 0.99923,1.234 1.6132,2.94445 1.36438,3.80101 -0.24882,0.85657 -1.64738,5.60739 -3.10792,10.55739 -4.2931,14.54997 -5.89013,25.68925 -5.87817,41 0.0139,17.79245 2.10356,29.62229 8.93062,50.55739 0.27933,0.85656 -0.30944,2.55422 -1.30839,3.77258 l -1.81626,2.2152 -29.25,-28.14181 z"
         id="path3434"
         inkscape:connector-curvature="0" />
      <path
         style="fill:#733750"
         d="m 308.2858,739.28306 -64.4789,-64.50769 64.73942,-64.74517 c 35.60668,-35.60984 64.73942,-65.41423 64.73942,-66.23197 0,-0.81774 -29.13277,-30.63237 -64.73948,-66.25475 l -64.73948,-64.76795 64.48657,-64.49239 c 35.46762,-35.47081 64.93403,-64.49238 65.48093,-64.49238 0.54689,0 30.0232,28.80082 65.5029,64.00182 35.47971,35.201 94.09606,93.35883 130.25856,129.23963 36.1625,35.8808 65.75,65.91361 65.75,66.73957 0,0.82595 -29.24528,30.53062 -64.98951,66.01036 -167.54241,166.30269 -195.6094,194.00862 -196.53686,194.00862 -0.54707,0 -30.01018,-29.02846 -65.47357,-64.5077 z"
         id="path3432"
         inkscape:connector-curvature="0" />
      <path
         style="fill:#292a59"
         d="m 439.03286,609.0379 c -35.61092,-35.61408 -64.74712,-65.1934 -64.74712,-65.73183 0,-1.30248 128.19011,-129.51531 129.49236,-129.51531 0.55738,0 30.26081,29.25 66.00764,65 l 64.99423,65 -64.99423,65 c -35.74683,35.75 -65.22183,65 -65.5,65 -0.27817,0 -29.64197,-29.13879 -65.25288,-64.75286 z"
         id="path3430"
         inkscape:connector-curvature="0" />
    </g>
  </g>
</svg>
